<svg width="262" height="37" viewBox="0 0 262 37" fill="none" xmlns="http://www.w3.org/2000/svg">
<mask id="mask0_1_1056" style="mask-type:luminance" maskUnits="userSpaceOnUse" x="0" y="0" width="262" height="37">
<path fill-rule="evenodd" clip-rule="evenodd" d="M0 0.000488281H261.257V36.1111H0V0.000488281Z" fill="white"/>
</mask>
<g mask="url(#mask0_1_1056)">
<path fill-rule="evenodd" clip-rule="evenodd" d="M180.935 18.2415C180.538 17.9085 180.114 17.6505 179.762 18.2965C180.215 18.2685 180.575 18.2595 180.935 18.2415ZM189.926 17.5475C190.554 18.0185 191.191 17.9355 191.791 17.5475H189.926ZM223.417 18.5475C223.417 18.6125 223.427 18.6775 223.427 18.7325C224.11 18.7045 224.784 18.6675 225.467 18.6395C225.467 18.6125 225.457 18.5755 225.457 18.5475H223.417ZM187.526 18.1125C186.077 17.9825 184.646 17.7335 183.085 18.1395C184.664 18.3985 186.105 18.3055 187.526 18.1125ZM202.829 18.5925V18.5185C200.496 18.3985 198.162 18.2695 195.829 18.1495V18.6015C198.162 18.5925 200.496 18.5925 202.829 18.5925ZM59.708 21.1955C59.099 20.7705 58.508 20.6785 57.797 21.1585C57.631 22.0165 57.539 22.9125 57.88 23.7805C58.573 24.1125 59.173 24.2045 59.773 23.7345C59.967 22.8755 59.967 22.0355 59.708 21.1955ZM16.035 23.3735C15.684 18.4995 13.791 16.6445 10.514 17.8355C10.985 20.8905 14.207 21.1585 16.035 23.3735ZM15.758 25.6445C12.573 23.9095 5.982 24.2875 3.489 26.2725C7.634 26.2915 11.53 26.8265 15.758 25.6445ZM16.404 33.4365C17.835 31.6825 17.595 29.6695 17.576 27.6945C14.678 27.2975 12.97 29.9925 14.031 33.0115C14.761 33.1405 15.527 33.2795 16.404 33.4365ZM240.579 21.1675C239.038 24.3895 240.431 27.3985 243.671 28.1005C244.327 23.6875 243.754 22.3495 240.579 21.1675ZM258.063 19.7185C254.25 17.8255 250.401 18.4625 246.441 18.8595C247.807 21.8505 255.645 22.4045 258.063 19.7185ZM242.342 17.4565C245.943 14.7335 246.718 5.24349 243.893 3.87749C241.022 8.08649 240.256 12.5735 242.342 17.4565ZM240.089 17.1245C240.542 16.4135 240.404 15.8225 240.182 15.1585C239.314 12.5915 239.295 9.95149 239.813 7.32049C240.145 5.60349 240.883 4.07149 242.527 3.23149C243.717 2.62149 243.625 1.21849 244.613 0.000488281C247.05 2.44649 246.182 5.69649 247.032 8.36349C247.955 11.2625 247.078 14.1605 245.786 17.2625C250.346 16.0625 254.445 16.5055 258.451 17.9825C259.466 18.3615 260.528 18.7215 261.257 19.6905C260.925 20.6325 260.316 21.1215 259.383 21.3985C255.137 22.6635 250.9 23.1615 246.588 21.6475C245.776 21.3615 244.936 21.0385 243.57 21.2605C246.542 23.6045 246.293 26.8635 246.69 29.9195C244.123 31.1095 241.169 29.5035 238.779 25.7925C218.322 25.8945 198.142 24.4815 177.805 24.3895C178.157 22.9495 178.922 23.2815 179.523 23.2725C190.96 23.0965 202.389 23.3185 213.808 24.0565C220.214 24.4725 226.63 24.1865 233.046 24.1865C234.689 24.1865 236.314 23.1895 237.966 24.3435C238.613 22.9125 238.511 21.6935 238.723 20.5865C179.55 18.2785 120.608 18.3335 61.453 21.5185C61.287 22.0545 61.425 22.9585 61.647 24.0755C74.913 24.1675 88.141 24.5005 101.379 23.8635C101.665 24.8235 101.665 24.8235 101.295 26.1345C94.788 25.0445 88.16 25.3585 81.578 25.5895C75.005 25.8205 68.46 25.4695 61.942 25.4135C60.77 26.8725 62.201 28.7005 61.019 30.2415C59.016 29.0975 60.327 27.1315 59.69 25.6915C59.127 25.3035 58.518 25.3405 57.724 25.7375C57.834 28.0265 57.88 30.3715 58.093 32.6975C58.213 34.0275 57.797 34.8025 56.274 35.1805C56.32 31.9495 56.514 28.8115 56.274 25.4505C43.849 25.1095 31.608 25.5895 19.469 26.4855C18.435 29.4025 20.05 32.9565 16.884 34.7195C15.675 35.3935 14.262 36.7225 12.361 35.7905C12.877 33.0945 11.151 30.3155 13.745 27.7595C10.413 27.7595 7.634 27.7675 4.855 27.7495C3.083 27.7035 1.32 27.5925 0 25.9035C1.181 23.8175 3.111 22.9215 5.308 22.4135C7.468 21.9155 9.637 21.6845 11.964 22.3955C10.099 20.5865 8.317 18.9425 8.677 16.1925C11.142 14.5305 14.354 15.0655 15.97 17.4565C16.672 18.4905 17.355 19.5425 17.946 20.6415C18.499 21.6755 18.933 22.7735 19.404 23.7985C21.241 24.5285 52.969 23.9645 56.126 23.8355C56.625 23.0235 56.302 22.1465 56.302 21.3055C54.317 20.4845 38.984 20.6595 35.771 21.5365C34.691 20.7155 35.134 19.8015 35.587 18.8595C37.091 18.4995 38.532 18.4815 40.018 18.7025C45.344 19.4965 50.689 19.9395 56.173 19.2015C56.477 14.5215 55.979 9.89649 56.081 5.32649C58.166 4.89249 58.591 5.08649 58.665 6.86849C58.767 9.43449 57.871 11.9275 57.955 14.5215C58 15.9795 57.788 17.4475 57.705 18.7675C58.268 19.5155 58.831 19.3955 59.496 19.1825C60.124 17.1795 59.035 15.1585 59.357 13.0905C60.714 12.4625 61.324 12.8135 61.268 14.3085C61.204 15.9895 61.056 17.6785 61.472 19.4785C65.053 19.9125 68.589 19.6905 72.097 19.6445C87.421 19.4315 102.727 18.5365 118.041 18.1955C132.563 17.8625 147.065 17.2255 161.586 16.8665C175.082 16.5335 188.57 16.5885 202.066 16.6535C214.205 16.7185 226.344 17.1055 238.474 17.3555C238.982 17.3735 239.498 17.4565 240.089 17.1245Z" fill="black"/>
</g>
<path fill-rule="evenodd" clip-rule="evenodd" d="M50.1816 12.6009C48.8896 12.0009 47.7716 11.1699 47.0986 13.0259C48.5936 14.2349 48.5936 14.2349 50.1816 12.6009ZM48.1686 15.6099C46.8676 15.6289 45.6956 14.2529 45.7316 12.7489C45.7596 11.5119 47.4116 9.93293 48.6586 9.94193C50.1536 9.95193 51.6396 11.2989 51.6306 12.6289C51.6126 14.2169 50.0336 15.5829 48.1686 15.6099Z" fill="black"/>
</svg>
