<svg xmlns="http://www.w3.org/2000/svg" viewBox="0 0 357.73 322.15"><defs><style>.cls-1{fill:#d6641d;}.cls-2{fill:#fff;}.cls-3{fill:#c04d00;}</style></defs><g id="Layer_2" data-name="Layer 2"><g id="Layer_1-2" data-name="Layer 1"><polygon class="cls-1" points="112.5 181.71 119.35 169.84 126.2 181.71 112.5 181.71"/><polygon class="cls-1" points="112.5 243.45 119.35 231.58 126.2 243.45 112.5 243.45"/><polygon class="cls-1" points="265.68 243.45 272.53 231.58 279.38 243.45 265.68 243.45"/><path class="cls-2" d="M169.51,226.77H154.35a11.72,11.72,0,0,1-.17-3.16l1.81-1a2.52,2.52,0,0,0,1.3-2.49l.17-8.88v-3.56c0-4.13-.34-6.79-5-6.79a21.34,21.34,0,0,0-7.8,1.58v8.77l.11,9.1c0,1,0,1.81.85,2.1l3.5,1a11.1,11.1,0,0,1-.28,3.28H132.69a18,18,0,0,1-.17-3l2.66-1a2.57,2.57,0,0,0,1.58-2.66l.17-8.82V200.2H132v-3.68a56.34,56.34,0,0,1,10.24-1.19c1.64,0,2.15.62,2.15,2v1.75a16.86,16.86,0,0,1,10.63-3.9c9.73,0,10.12,4.3,10.12,10.23v5.83l.17,9.95c.06.91.12,1.3.8,1.42l3.73.9A9.83,9.83,0,0,1,169.51,226.77Z"/><path class="cls-2" d="M209.72,226.77H194.56a11.72,11.72,0,0,1-.17-3.16l1.81-1a2.52,2.52,0,0,0,1.3-2.49l.17-8.88v-3.56c0-4.13-.34-6.79-5-6.79a21.34,21.34,0,0,0-7.8,1.58v8.77l.11,9.1c0,1,.06,1.81.85,2.1l3.5,1a11.1,11.1,0,0,1-.28,3.28H172.9a18,18,0,0,1-.17-3l2.66-1A2.58,2.58,0,0,0,177,220.1l.17-8.82V200.2h-4.92v-3.68a56.14,56.14,0,0,1,10.23-1.19c1.64,0,2.15.62,2.15,2v1.75a16.91,16.91,0,0,1,10.63-3.9c9.73,0,10.12,4.3,10.12,10.23v5.83l.17,9.95c.06.91.12,1.3.8,1.42l3.73.9A9.83,9.83,0,0,1,209.72,226.77Z"/><path class="cls-2" d="M220.75,212.24c.34,7.47,4.3,8.94,9.78,8.94a39.15,39.15,0,0,0,8.6-1l1.3,4.24a24.54,24.54,0,0,1-12.27,3c-8.15,0-15.44-2.83-15.44-14.31,0-10.46,5.94-17.93,15.66-17.93,9,0,12.67,6.34,12.67,14.76v2.32Zm6.67-12.78c-4.18,0-6.67,4-6.84,9h12.21C232.79,203.08,231.32,199.46,227.42,199.46Z"/><path class="cls-2" d="M268.65,203.31a10.11,10.11,0,0,0-5-1.25c-3,0-5.2.68-6.33,1.59v7.57l.23,9.16c0,1,.17,1.3.73,1.42l6.79,1.41a11.68,11.68,0,0,1-.34,3.56H245.12a16.28,16.28,0,0,1-.28-3.11l2.55-1c1.35-.51,2.09-1.13,2.15-3.16l.11-8.32V200.14h-5.09v-3.68a62.82,62.82,0,0,1,10.07-1.18c1.35,0,2.54.45,2.54,2.2v2.26a10.56,10.56,0,0,1,8.2-4.46,11.23,11.23,0,0,1,5.49,1.24Z"/><path class="cls-2" d="M32.48,280.47H.25A13.41,13.41,0,0,1,0,277.14L3,276.4c1.3-.34,2.38-1.19,2.38-2.43l.17-9.28V247.84c0-1.86-.68-2.49-1.59-2.83L.36,243.54v-1.41a5.26,5.26,0,0,1,.28-1.64H31.69v9.27a26.21,26.21,0,0,1-3.56.23c-.74-3.56-2.15-4.64-4.64-4.64l-10.07-.28v13l15.33-.28V263l-15.33-.29v2l.29,11.14,8.54-.22c4.07-.12,6.84-1.87,8.2-5.6l3.44.73Z"/><path class="cls-2" d="M74.67,280.47H59.51a11.75,11.75,0,0,1-.16-3.16l1.8-1a2.51,2.51,0,0,0,1.31-2.48l.16-8.88v-3.57c0-4.12-.33-6.78-5-6.78a21.34,21.34,0,0,0-7.8,1.58V265l.11,9.1c0,1,.06,1.81.85,2.09l3.51,1a10.73,10.73,0,0,1-.29,3.28H37.86a16.1,16.1,0,0,1-.17-3l2.65-1a2.59,2.59,0,0,0,1.59-2.66L42.1,265V253.89H37.18v-3.67A56.24,56.24,0,0,1,47.41,249c1.64,0,2.15.62,2.15,2v1.75a16.91,16.91,0,0,1,10.63-3.9c9.73,0,10.13,4.29,10.13,10.23V265l.17,9.95c.05.9.11,1.3.79,1.41l3.73.91A9.83,9.83,0,0,1,74.67,280.47Z"/><path class="cls-2" d="M103.85,255a9.86,9.86,0,0,1,.74,4c0,6.22-5.32,10.35-13,10.35a19,19,0,0,1-6.5-1v5H95.26c10.12,0,12.78,3.06,12.78,8,0,7.58-8.37,11.7-18.21,11.7-6.17,0-12.5-1.52-12.5-7,0-3.28,2.72-5.6,5-6.67A3.44,3.44,0,0,1,79,275.83c0-2.6,1.7-5.59,3.79-8.48a8.25,8.25,0,0,1-4-7.52c0-5.6,4.25-10.91,12.84-10.91,4.13,0,7.52,1.07,9.28,2.37l8.93-2V255Zm-9,24.83h-9.5a5.11,5.11,0,0,0-1.64,3.45c0,2.83,2.32,5,8.43,5,5.2,0,8.2-2.15,8.2-5.43C100.35,280.64,98.54,279.85,94.86,279.85ZM91.58,253c-4.3,0-5.54,3.17-5.54,6.33,0,3.51,1.41,6.11,5.37,6.11,3.51,0,5.26-2.38,5.26-6S94.92,253,91.58,253Z"/><path class="cls-2" d="M112,277.31l3.45-1.08a2.36,2.36,0,0,0,1.53-2.49l.17-8.71V253.89h-5.21v-3.67A56,56,0,0,1,122.12,249c1.81,0,2.72.51,2.72,2.49V265l.11,9.11c.06,1.41.34,1.86,1,2l4.19,1a12.24,12.24,0,0,1-.34,3.28H112.23A16,16,0,0,1,112,277.31Z"/><path class="cls-2" d="M169.91,280.47H154.75a11.74,11.74,0,0,1-.17-3.16l1.81-1a2.5,2.5,0,0,0,1.3-2.48l.17-8.88v-3.57c0-4.12-.34-6.78-5-6.78a21.34,21.34,0,0,0-7.8,1.58V265l.11,9.1c0,1,.06,1.81.85,2.09l3.5,1a11.1,11.1,0,0,1-.28,3.28H133.09a18,18,0,0,1-.17-3l2.66-1a2.59,2.59,0,0,0,1.59-2.66l.17-8.82V253.89h-4.93v-3.67A56.34,56.34,0,0,1,142.65,249c1.64,0,2.15.62,2.15,2v1.75a16.91,16.91,0,0,1,10.63-3.9c9.73,0,10.12,4.29,10.12,10.23V265l.17,9.95c.06.9.12,1.3.8,1.41l3.73.91A9.83,9.83,0,0,1,169.91,280.47Z"/><path class="cls-2" d="M180.94,265.94c.34,7.46,4.3,8.93,9.78,8.93a39,39,0,0,0,8.6-1l1.3,4.24a24.51,24.51,0,0,1-12.27,3c-8.15,0-15.44-2.82-15.44-14.3,0-10.47,5.94-17.93,15.66-17.93,9,0,12.67,6.33,12.67,14.76v2.32Zm6.67-12.78c-4.18,0-6.67,4-6.84,9H193C193,256.78,191.51,253.16,187.61,253.16Z"/><path class="cls-2" d="M213.06,265.94c.34,7.46,4.3,8.93,9.79,8.93a39,39,0,0,0,8.59-1l1.3,4.24a24.51,24.51,0,0,1-12.27,3c-8.14,0-15.44-2.82-15.44-14.3,0-10.47,5.94-17.93,15.67-17.93,9,0,12.66,6.33,12.66,14.76v2.32Zm6.68-12.78c-4.19,0-6.68,4-6.85,9h12.22C225.11,256.78,223.64,253.16,219.74,253.16Z"/><path class="cls-2" d="M261,257a10.17,10.17,0,0,0-5-1.24c-3,0-5.21.68-6.34,1.58v7.58l.23,9.16c0,1,.17,1.3.73,1.42l6.79,1.41a11.71,11.71,0,0,1-.34,3.56H237.44a15.51,15.51,0,0,1-.28-3.11l2.54-1c1.36-.51,2.09-1.13,2.15-3.17l.11-8.31V253.84h-5.09v-3.68A62.81,62.81,0,0,1,246.94,249c1.36,0,2.54.46,2.54,2.21v2.26a10.57,10.57,0,0,1,8.2-4.47,11.19,11.19,0,0,1,5.49,1.25Z"/><path class="cls-2" d="M264.7,277.31l3.45-1.08a2.36,2.36,0,0,0,1.52-2.49l.17-8.71V253.89h-5.2v-3.67A56,56,0,0,1,274.82,249c1.81,0,2.72.51,2.72,2.49V265l.11,9.11c.06,1.41.34,1.86,1,2l4.18,1a11.85,11.85,0,0,1-.34,3.28H264.92A16.13,16.13,0,0,1,264.7,277.31Z"/><path class="cls-2" d="M322.61,280.47H307.45a11.74,11.74,0,0,1-.17-3.16l1.81-1a2.5,2.5,0,0,0,1.3-2.48l.17-8.88v-3.57c0-4.12-.34-6.78-5-6.78a21.34,21.34,0,0,0-7.8,1.58V265l.11,9.1c0,1,.05,1.81.85,2.09l3.5,1a11.1,11.1,0,0,1-.28,3.28H285.79a18,18,0,0,1-.17-3l2.66-1a2.59,2.59,0,0,0,1.58-2.66L290,265V253.89h-4.92v-3.67A56.34,56.34,0,0,1,295.35,249c1.64,0,2.15.62,2.15,2v1.75a16.86,16.86,0,0,1,10.63-3.9c9.73,0,10.12,4.29,10.12,10.23V265l.17,9.95c.06.9.12,1.3.79,1.41l3.74.91A9.83,9.83,0,0,1,322.61,280.47Z"/><path class="cls-2" d="M351.79,255a9.86,9.86,0,0,1,.74,4c0,6.22-5.32,10.35-13,10.35a19,19,0,0,1-6.5-1v5H343.2c10.12,0,12.78,3.06,12.78,8,0,7.58-8.37,11.7-18.21,11.7-6.17,0-12.5-1.52-12.5-7,0-3.28,2.71-5.6,5-6.67a3.44,3.44,0,0,1-3.34-3.57c0-2.6,1.7-5.59,3.79-8.48a8.25,8.25,0,0,1-4-7.52c0-5.6,4.24-10.91,12.84-10.91,4.13,0,7.52,1.07,9.27,2.37l8.94-2V255Zm-9,24.83h-9.5a5.11,5.11,0,0,0-1.64,3.45c0,2.83,2.32,5,8.43,5,5.2,0,8.2-2.15,8.2-5.43C348.29,280.64,346.48,279.85,342.8,279.85ZM339.52,253c-4.3,0-5.54,3.17-5.54,6.33,0,3.51,1.41,6.11,5.37,6.11,3.51,0,5.26-2.38,5.26-6S342.86,253,339.52,253Z"/><path class="cls-2" d="M129.63,226.77H112.16a16,16,0,0,1-.23-3l3.22-1c1.19-.4,1.59-1.25,1.59-2.6l.22-8.94V192.22h-5.09v-3.67A55.9,55.9,0,0,1,122,187.36c1.69,0,2.65.57,2.65,2.49v21.43l.17,9.22c.06,1,.12,1.81.8,2l4.29,1A13.09,13.09,0,0,1,129.63,226.77Z"/><path class="cls-2" d="M119.35,185.64a7.92,7.92,0,1,1,7.92-7.92A7.93,7.93,0,0,1,119.35,185.64Zm0-15.75a7.84,7.84,0,1,0,7.84,7.83A7.84,7.84,0,0,0,119.35,169.89Z"/><path class="cls-2" d="M119.35,247.38a7.92,7.92,0,1,1,7.92-7.92A7.93,7.93,0,0,1,119.35,247.38Zm0-15.76a7.84,7.84,0,1,0,7.84,7.84A7.85,7.85,0,0,0,119.35,231.62Z"/><path class="cls-2" d="M272.53,247.38a7.92,7.92,0,1,1,7.92-7.92A7.93,7.93,0,0,1,272.53,247.38Zm0-15.76a7.84,7.84,0,1,0,7.84,7.84A7.85,7.85,0,0,0,272.53,231.62Z"/><path class="cls-3" d="M64.53,307.67a2.62,2.62,0,0,1-.86.05c-.22-1.17-.73-1.89-1.78-1.89H59.47v6.93l.1,3.22c0,.43,0,.6.39.68l1.8.34a6.19,6.19,0,0,1-.07.93h-6.1a3.82,3.82,0,0,1-.08-.93l1.4-.36c.44-.11.76-.79.78-1.31l.06-2.57v-6.93h-2.6c-.92,0-1.36.79-1.57,1.89a2.37,2.37,0,0,1-.87-.05v-3.13H64.53Z"/><path class="cls-3" d="M66.82,312.87c.13,3.34,1.69,3.77,3.6,3.77a11.49,11.49,0,0,0,2.73-.32l.3,1a7.08,7.08,0,0,1-3.54.76c-2.71,0-4.79-.89-4.79-4.81,0-3.69,1.85-5.91,4.73-5.91,2.69,0,3.83,1.89,3.83,5v.53Zm2.86-4.37c-1.5,0-2.69,1.14-2.84,3.29h4.9C71.74,309.67,71.18,308.5,69.68,308.5Z"/><path class="cls-3" d="M82.45,310.18a3.29,3.29,0,0,0-2.66-1.47c-1.72,0-2.7,1.15-2.7,4,0,2.35.7,4,3.41,4a9.22,9.22,0,0,0,2.48-.36l.32,1a5.93,5.93,0,0,1-3.28.78c-3.58,0-4.66-1.89-4.66-4.87,0-3.86,1.88-5.85,5.34-5.85.57,0,2.64.06,2.64,1.37A1.8,1.8,0,0,1,82.45,310.18Z"/><path class="cls-3" d="M96.5,317.93H91.8a5,5,0,0,1,0-.93l.81-.36c.32-.13.53-.47.55-1.12l.06-2.76v-1.59c0-1.74-.23-2.35-2.14-2.35a7.93,7.93,0,0,0-3.24.85v3.09l.07,3.29c0,.46,0,.55.36.61L90,317a4.8,4.8,0,0,1-.09,1H84.64a4.91,4.91,0,0,1,0-.83l.87-.38a1.46,1.46,0,0,0,.64-1.27l0-2.69v-8H84.23v-.89a14.23,14.23,0,0,1,2.82-.44c.53,0,.74.17.74.68v4.61a6.47,6.47,0,0,1,3.9-1.37c2.86,0,3.12,1.44,3.12,3.49v1.89l.06,3.5c0,.31.09.34.36.4l1.36.27A5.09,5.09,0,0,1,96.5,317.93Z"/><path class="cls-3" d="M109.68,317.93h-4.54a4.85,4.85,0,0,1-.06-.91l.53-.36a1.28,1.28,0,0,0,.57-1l0-2.86v-1.59c0-1.74-.22-2.35-2.13-2.35a7.14,7.14,0,0,0-3.09.85v3.09l.06,3.45c0,.3,0,.41.24.45l1.67.3a4.14,4.14,0,0,1-.08,1H97.85a4.11,4.11,0,0,1-.06-.83l.87-.42a1.31,1.31,0,0,0,.64-1.1l.06-2.82v-3.92H97.45v-.95a14.11,14.11,0,0,1,2.82-.39c.53,0,.7.17.7.68v.57a6.1,6.1,0,0,1,3.79-1.37c2.86,0,3.12,1.44,3.12,3.49v1.89l.08,3.63c0,.23,0,.25.24.29l1.56.28A4.14,4.14,0,0,1,109.68,317.93Z"/><path class="cls-3" d="M115.35,318.08c-2.84,0-4.55-1.53-4.55-5.21,0-2.82,2.14-5.49,4.72-5.49,3.06,0,4.62,1.72,4.62,5.38C120.14,315.54,118,318.08,115.35,318.08Zm0-9.43c-2.31,0-2.69,2.27-2.69,4.24,0,2.16.57,3.79,3,3.79,2.29,0,2.63-2,2.63-4S117.88,308.65,115.31,308.65Z"/><path class="cls-3" d="M126.67,317.93h-5.3a4.11,4.11,0,0,1-.06-.83l1-.36a1.13,1.13,0,0,0,.66-1.06l.09-2.92v-8h-1.91v-.91a14.26,14.26,0,0,1,2.82-.42.66.66,0,0,1,.74.74v8.56l.1,3.54c0,.3,0,.32.22.36l1.73.32A4,4,0,0,1,126.67,317.93Z"/><path class="cls-3" d="M132.34,318.08c-2.84,0-4.55-1.53-4.55-5.21,0-2.82,2.14-5.49,4.72-5.49,3.06,0,4.62,1.72,4.62,5.38C137.13,315.54,135,318.08,132.34,318.08Zm0-9.43c-2.31,0-2.69,2.27-2.69,4.24,0,2.16.57,3.79,3,3.79,2.29,0,2.63-2,2.63-4S134.87,308.65,132.3,308.65Z"/><path class="cls-3" d="M146.92,309.12a4.11,4.11,0,0,1,.32,1.77,3.66,3.66,0,0,1-3.9,3.37,5.48,5.48,0,0,1-2.33-.48v2h3.39c3.28,0,4.11,1,4.11,2.58,0,2.1-2.56,3.84-5.79,3.84-2.11,0-4.13-.53-4.13-2.56a3.08,3.08,0,0,1,1.78-2.34,1.18,1.18,0,0,1-1-1.14,4.1,4.1,0,0,1,1.17-2.56,3.09,3.09,0,0,1-1.25-2.59,3.67,3.67,0,0,1,4-3.58,4.1,4.1,0,0,1,2.72.7l3.11-.6v1.64Zm-3.16,8.26h-2.6a2.35,2.35,0,0,0-.81,1.55c0,1.21.93,2,3.16,2,1.74,0,3.16-.87,3.16-2.31C146.67,317.46,145.52,317.38,143.76,317.38Zm-.4-9a2.18,2.18,0,0,0-2.41,2.35,2.16,2.16,0,0,0,2.35,2.41,2,2,0,0,0,2.14-2.2C145.44,309.56,144.67,308.42,143.36,308.42Z"/><path class="cls-3" d="M150.07,317.1l1.19-.42a1.34,1.34,0,0,0,.6-1l.06-2.88v-3.94H150v-1a15.93,15.93,0,0,1,2.82-.41c.53,0,.76.17.76.68v4.64l.06,3.46c0,.33.11.38.32.42l1.65.3a4.21,4.21,0,0,1-.1,1h-5.38A6.24,6.24,0,0,1,150.07,317.1Zm1.25-12.71a3.11,3.11,0,0,1,1.4-1.4,3.54,3.54,0,0,1,1.42,1.4c0,.23-1.1,1.42-1.42,1.42A3.25,3.25,0,0,1,151.32,304.39Z"/><path class="cls-3" d="M158.36,312.87c.13,3.34,1.69,3.77,3.6,3.77a11.49,11.49,0,0,0,2.73-.32l.3,1a7.08,7.08,0,0,1-3.54.76c-2.71,0-4.79-.89-4.79-4.81,0-3.69,1.85-5.91,4.73-5.91,2.69,0,3.83,1.89,3.83,5v.53Zm2.86-4.37c-1.5,0-2.69,1.14-2.84,3.29h4.9C163.28,309.67,162.72,308.5,161.22,308.5Z"/><path class="cls-3" d="M170.2,318.12a7.84,7.84,0,0,1-3.32-.68l.16-3,.89,0a2.41,2.41,0,0,0,2.42,2.52c1.17,0,2.2-.36,2.2-1.46,0-.85-.72-1.27-2.41-1.95-1.42-.57-2.93-1.38-2.93-3.33s1.63-2.9,3.63-2.9a7.1,7.1,0,0,1,3,.66l-.32,2.52-.7-.07a2.34,2.34,0,0,0-2.37-1.95c-1.13,0-1.83.58-1.83,1.3,0,1.16,1.15,1.5,2.38,2,1.48.62,3.09,1.38,3.09,3.22C174.12,317.46,172.11,318.12,170.2,318.12Z"/><path class="cls-3" d="M188.3,305.72a3.84,3.84,0,0,0-2-1.08c-2.24,0-2.35,1.11-2.35,2.59v.44h2.25v1.17h-2.25v3.92l.13,3.37c0,.21,0,.28.21.32l2.31.49a3.66,3.66,0,0,1-.09,1h-5.91a4,4,0,0,1-.08-.83l.82-.34a1.24,1.24,0,0,0,.89-1.25l0-2.75v-3.92h-1.51v-.95l1.51-.24v-.5a3.94,3.94,0,0,1,3.83-3.8c.74,0,2.86.09,2.86,1.13A1.45,1.45,0,0,1,188.3,305.72Z"/><path class="cls-3" d="M192.11,318.08c-2.84,0-4.54-1.53-4.54-5.21,0-2.82,2.14-5.49,4.71-5.49,3.07,0,4.62,1.72,4.62,5.38C196.9,315.54,194.8,318.08,192.11,318.08Zm0-9.43c-2.32,0-2.69,2.27-2.69,4.24,0,2.16.56,3.79,3,3.79,2.29,0,2.63-2,2.63-4S194.65,308.65,192.08,308.65Z"/><path class="cls-3" d="M205.77,309.29a3.33,3.33,0,0,0-1.21-.2,3.64,3.64,0,0,0-2.69.81v2.84l.07,3.43c0,.3,0,.45.29.49l2,.3a4.14,4.14,0,0,1-.08,1h-5.41a3.1,3.1,0,0,1-.08-.83l.89-.46a1.67,1.67,0,0,0,.66-1.42l0-2.48v-3.92h-1.91v-1a16,16,0,0,1,2.82-.39c.53,0,.72.17.72.68V309a3.56,3.56,0,0,1,3-1.57,4.86,4.86,0,0,1,1.25.15Z"/><path class="cls-3" d="M231.35,304.54a3.25,3.25,0,0,1,.06.74l-.74.34a2.19,2.19,0,0,0-1,1.31l-3.75,11-1.33.23-3.22-8.49-3.92,8.26-1.23.23-3.61-11.52a1.4,1.4,0,0,0-.53-.83l-1.06-.57a3,3,0,0,1,.07-.7H216a2.73,2.73,0,0,1,.08.76l-1,.34c-.36.11-.49.53-.46,1a2.09,2.09,0,0,0,.08.36l2.5,8.77,3.6-7.65-.55-1.76a1,1,0,0,0-.42-.53l-1.06-.57a2.92,2.92,0,0,1,.06-.7h4.9a2,2,0,0,1,.08.76l-1,.34a.78.78,0,0,0-.47.81,1.61,1.61,0,0,0,.08.52l2.95,8.82,2.74-8.77a1.55,1.55,0,0,0,.08-.53.72.72,0,0,0-.32-.7l-1.1-.51a2.87,2.87,0,0,1,.09-.74Z"/><path class="cls-3" d="M233.16,312.87c.13,3.34,1.68,3.77,3.6,3.77a11.34,11.34,0,0,0,2.72-.32l.31,1a7.08,7.08,0,0,1-3.54.76c-2.71,0-4.8-.89-4.8-4.81,0-3.69,1.86-5.91,4.74-5.91,2.69,0,3.82,1.89,3.82,5v.53ZM236,308.5c-1.5,0-2.69,1.14-2.84,3.29h4.9C238.08,309.67,237.51,308.5,236,308.5Z"/><path class="cls-3" d="M246.64,317.93h-5.3a4.11,4.11,0,0,1-.06-.83l1-.36a1.13,1.13,0,0,0,.66-1.06l.09-2.92v-8h-1.91v-.91a14.26,14.26,0,0,1,2.82-.42.66.66,0,0,1,.74.74v8.56l.1,3.54c0,.3,0,.32.22.36l1.73.32A4,4,0,0,1,246.64,317.93Z"/><path class="cls-3" d="M252.74,317.93h-5.3a4.11,4.11,0,0,1-.06-.83l1-.36a1.13,1.13,0,0,0,.66-1.06l.09-2.92v-8h-1.91v-.91a14.26,14.26,0,0,1,2.82-.42.66.66,0,0,1,.74.74v8.56l.1,3.54c0,.3,0,.32.22.36l1.73.32A4,4,0,0,1,252.74,317.93Z"/><path class="cls-3" d="M258.21,318.06a11.33,11.33,0,0,1-3.65-.4l.1-4.9v-8h-1.94v-.91a14.38,14.38,0,0,1,2.82-.42c.54,0,.74.17.74.68v8.62l.1,3.79a7.84,7.84,0,0,0,1.89.19c2.27,0,3.2-1.73,3.2-4.06,0-2.17-.51-3.86-2.76-3.86a9.57,9.57,0,0,0-1.61.13l-.23-.77a4.76,4.76,0,0,1,2.31-.68c2.67,0,4.15,1.28,4.15,5C263.33,315.79,261.13,318.06,258.21,318.06Z"/><path class="cls-3" d="M266.81,312.87c.14,3.34,1.69,3.77,3.6,3.77a11.49,11.49,0,0,0,2.73-.32l.3,1a7.08,7.08,0,0,1-3.54.76c-2.71,0-4.79-.89-4.79-4.81,0-3.69,1.86-5.91,4.73-5.91,2.69,0,3.83,1.89,3.83,5v.53Zm2.86-4.37c-1.49,0-2.68,1.14-2.84,3.29h4.91C271.74,309.67,271.17,308.5,269.67,308.5Z"/><path class="cls-3" d="M275.21,317.1l1.19-.42a1.34,1.34,0,0,0,.6-1l.06-2.88v-3.94h-1.93v-1a15.93,15.93,0,0,1,2.82-.41c.53,0,.76.17.76.68v4.64l.06,3.46c0,.33.11.38.32.42l1.65.3a4.21,4.21,0,0,1-.1,1h-5.38A6.24,6.24,0,0,1,275.21,317.1Zm1.25-12.71a3.11,3.11,0,0,1,1.4-1.4,3.54,3.54,0,0,1,1.42,1.4c0,.23-1.1,1.42-1.42,1.42A3.25,3.25,0,0,1,276.46,304.39Z"/><path class="cls-3" d="M293.73,317.93h-4.55a5.87,5.87,0,0,1-.06-.91l.54-.36a1.3,1.3,0,0,0,.56-1l.06-2.86v-1.59c0-1.74-.23-2.35-2.14-2.35a7.22,7.22,0,0,0-3.09.85v3.09l.06,3.45c0,.3,0,.41.25.45l1.66.3a4.72,4.72,0,0,1-.07,1h-5.06a5,5,0,0,1-.06-.83l.88-.42a1.33,1.33,0,0,0,.64-1.1l.06-2.82v-3.92h-1.92v-.95a14.21,14.21,0,0,1,2.83-.39c.53,0,.7.17.7.68v.57a6.07,6.07,0,0,1,3.78-1.37c2.86,0,3.13,1.44,3.13,3.49v1.89l.07,3.63c0,.23,0,.25.25.29l1.55.28A4.72,4.72,0,0,1,293.73,317.93Z"/><path class="cls-3" d="M303,309.12a4.11,4.11,0,0,1,.32,1.77,3.66,3.66,0,0,1-3.9,3.37,5.52,5.52,0,0,1-2.33-.48v2h3.39c3.28,0,4.11,1,4.11,2.58,0,2.1-2.55,3.84-5.79,3.84-2.1,0-4.13-.53-4.13-2.56a3.08,3.08,0,0,1,1.78-2.34,1.18,1.18,0,0,1-1-1.14,4.15,4.15,0,0,1,1.17-2.56,3.09,3.09,0,0,1-1.25-2.59,3.67,3.67,0,0,1,4-3.58,4.17,4.17,0,0,1,2.73.7l3.1-.6v1.64Zm-3.16,8.26h-2.6a2.35,2.35,0,0,0-.81,1.55c0,1.21.93,2,3.16,2,1.74,0,3.17-.87,3.17-2.31C302.73,317.46,301.57,317.38,299.81,317.38Zm-.4-9a2.18,2.18,0,0,0-2.4,2.35,2.15,2.15,0,0,0,2.34,2.41,2,2,0,0,0,2.14-2.2C301.49,309.56,300.72,308.42,299.41,308.42Z"/><path class="cls-3" d="M109.58,28.12c1.19-1.67,3.22-5.05,4.37-7s3.44-5.83,4.39-7.7S121.08,8,121,5.37A6.15,6.15,0,0,0,115,0s-5.28-.75-11.77,5.34A78.6,78.6,0,0,0,93.12,15.83s-8.06,9.91-9.25,11.43a55.87,55.87,0,0,0-8.43,14s-3.09,8.38-4,12.4c0,0-1.39,7.64-1.79,11.43a91.68,91.68,0,0,0,.53,11.06S73,87.05,76.3,93.54c0,0,3.27,6.44,4.24,8.43,0,0,5,9.44,5.16,11.78,0,0,1.49,4.7.37,7.32a16.35,16.35,0,0,1-5.91,8.5,32.22,32.22,0,0,1-11.69,5.24s-8.41,2.59-15.74,3.94c0,0-14,2-19.45,2.65,0,0-11.77,1.09-15.62.56,0,0-1.95-.27-.06-2.3,0,0,6-5.88,11.94-8.24a9.35,9.35,0,0,0-3.7,1.09c-1.5.94-.92.27-.06-.61s2.09-2,1.94-2.27-.27-.53-.94-.12-.44-.15-.62-.32-.21-.44-.74,0-2,.53-3.29,1.53-3.53,3.12-3.44,2,1.61-2.38,1-2-9.15,4.82-11,9.68c0,0-1.44,4.47,8.18,6.12a48.55,48.55,0,0,0,9,.35,113.24,113.24,0,0,0,13.21-1s9.33-.85,13.83-1.53,14.74-2.94,19.07-4.09a36.72,36.72,0,0,0,13.47-6.88,18,18,0,0,0,6.89-10.54c.91-3.56-.62-8.88-1.65-11.06s-4.62-10.15-7.15-14.36S79.92,88,78.8,85.28s-3.18-9.12-3-13.91.47-10.3,1.3-14.07A95.47,95.47,0,0,1,80,46.91C81.07,43.59,85.78,35,87.6,32.46s5.83-8.06,8.62-11.62,7-8.8,10.15-11.33,6.18-4.65,7.8-5.06c0,0,1.56-.62.91.91a64.06,64.06,0,0,1-3.82,8c-1.77,2.79-3.65,7.09-6.59,11.12,0,0-7.86,11.86-9.36,14.15S88.13,50,86.54,52.8s-3.32,6.65-3.62,8.82a34.23,34.23,0,0,0,4.59,2.48s1.17.86,1.68-2q0-.27.09-.6c.44-3.62,3.09-6,6.62-11.83,0,0,3.35-5.54,4-6.73a62,62,0,0,1,4.85-7.35C106.16,34.06,108.39,29.8,109.58,28.12Z"/><path class="cls-3" d="M125.11,112.77s-2.2-2.42-3.73-2.53a7.88,7.88,0,0,1,.32-2.15c.31-1,1.57-2.47,1.68-3.32,0,0-3.26-3.41-5.1-3.57,0,0-4.63,4.42-7.68,6.78s-7.84,6.52-9.15,13.67c0,0-.74,3.42,5.57,4.95,0,0,3.21,2.26,8-1.11a44.5,44.5,0,0,0,4.47-3.15s3,6.26,11.15,5.36l-.21-1S121.59,126.12,125.11,112.77Zm-5.94-3.37a20.09,20.09,0,0,0-1.42,5.37c-.26,2-5,8.09-10.78,8.78a15.77,15.77,0,0,1,3.63-8.31c3.26-3.68,7.84-6.78,9.73-8.15C120.33,107.09,119.65,108.61,119.17,109.4Z"/><path class="cls-3" d="M354.49,120.24a14.07,14.07,0,0,1-2.7-1.29s-.36.82-2.65.41-3.77-.77-4.18-1.12-1.41-1.35.24-1.65l3.11-.76c1.18-.3.77-.88.77-.88L346.92,113a6.45,6.45,0,0,1-.72.22,16.21,16.21,0,0,1-2.36.41,10.56,10.56,0,0,0,1.06-3.3l-4.12-4.06s-3.59,1.53-3.24,7.83c0,0-7.29,1-9,.88s-4.94.89-5-2.11a33.83,33.83,0,0,1,.88-4.07,1.46,1.46,0,0,0-.82-2,6.37,6.37,0,0,1-2.24-1.59c-.82-.76-2.47-1.58-3.24,0,0,0-1.29,2.47-2.59,3.23s-6,1.18-7.53,2.42a8.13,8.13,0,0,1-4.06,1.53s-.71-.53.59-5.83c0,0,2.1-7.06.76-11.26a6,6,0,0,0-.35-.86,37.29,37.29,0,0,0-4.88-7.24,11,11,0,0,1,.06-5.12c.7-2.71.23-4.71-1.18-5.83a8.35,8.35,0,0,1-2.59-3.06,5.9,5.9,0,0,0-2.71,5.06,20.79,20.79,0,0,0,1.53,5.36,6.19,6.19,0,0,1,.24,5.82s-3.71,11.48-4.48,13.48-3.23,9.3-3.47,10.36-.7,4.41-.7,4.88-.3.24-.95-.11-3.23-.59-4.65-1-4.7-.23-5.41-1-1-2.23-1.65-3a7.45,7.45,0,0,0-2.53-1.88c-.76-.3-2.06-2.18-2.88-1.88,0,0-1.06,1.88-1.65,2.88s-1.53,2.88-1.77,3.3-1.11,1.23-1.17.52a7.81,7.81,0,0,1,.59-4c.76-1.65,2.29-5.53,2.59-6s1.29-2.3,1.29-2.3-2.82-2.06-3.41-2.53a1.91,1.91,0,0,0-3.12.65l-1.89,3.77s-2.82,2.65-4.11,3.76c0,0-8.24,6.71-10.48,8.3,0,0-4.06,1.83-5.59,1,0,0-.3-6.59-1.12-9.41a4.41,4.41,0,0,0-1.46-1.67s-1.46-1.25-1.73-1.59-.92-.9-1.3-.86a1.25,1.25,0,0,0-1.19.78,5.77,5.77,0,0,0-.2,1.54c0,.11-.15.27-.15.27s-2.65-2.56-3.8-2.92a4,4,0,0,0-3.62.53c-1.5.89-8.65,6.18-9.8,8.74a4.66,4.66,0,0,0,2.21,4.42s2.47,1.23,3.18,1.67,6.09.89,8.83,0,3.79-.61,3.79-.61.44,4.85.8,6.09c0,0-3.45,3.88-4.42,4.76s-1.85.09-3.09,1.15-11.21,11.92-13,14.48-5.83,8.83-2.3,13.33c0,0,.88,3.09,9.36,3.88s5.12.27,9.09-.53a22.5,22.5,0,0,0,9.8-4.59c1.77-1.67,5.39-3.5,4.56-9.44a99.46,99.46,0,0,1-3.12-12.83c-.88-5.83-1.06-8.65-1.06-8.65s3.65-3.53,7.36-6.54,6.06-5.06,7.71-6.18,2.88-2.06,2.88-2.06-1.23,6.54-.06,8.3,2,1.42,2.83,1.83,1.18.7,2.29,1.17a4.23,4.23,0,0,0,5-1.64,37.72,37.72,0,0,1,3.35-4.48s2.77,1.12,5.42,2,7.65.17,9,0a19,19,0,0,0,1.77,1.12,11.54,11.54,0,0,0,3.35,1.24,57,57,0,0,0,3.71-9.24c.94-3.77,3.71-12.95,3.76-15a14.87,14.87,0,0,1,1-4.71c.23-.53.47,0,.58.77s.47,5.18-.23,7-3.3,8.54-2.06,11.71c0,0,1,2.48,3.18,2.83a4.72,4.72,0,0,1,3.06,1.65c.59.41,3.35.47,5.18-.53,0,0,6.88-2.89,7.06-3.24s.65-.29.65-.29a10.6,10.6,0,0,0,1.82,2.7,6,6,0,0,0,3,1.89,9.39,9.39,0,0,1,2.94,1.06c.77.47,6.3,1.11,8.71.64s3.95-1.59,4.83-1.29,2.53,2.06,3.71,2.53a37.36,37.36,0,0,1,3.41,1.71,7.34,7.34,0,0,0,3.65.94c1.59,0,4.18-.65,5.06-.71s3.06-2,3.06-2A5.18,5.18,0,0,1,354.49,120.24Zm-121.1-6.09c-.22,1.59-.57.09-1.19.09s-1.94,1-3.18,1.1-4.54,1-5.65,1.11-1.72.75-1.72-.45,6.4-5.34,6.4-5.34l1.9.49c.7.18,1.28,1.15,1.72,1.24s.71-1,1.1-1.51.62,0,.84.67S233.61,112.56,233.39,114.15ZM237.28,152a14.65,14.65,0,0,1-9.8,6.67,19.34,19.34,0,0,1-9.63.75c-3.17-1.81.93-9.76.93-9.76,1.94-5.21,16.38-19,16.38-19,.39,3.05,2.69,14.17,2.69,14.17C238.69,150.48,237.28,152,237.28,152Z"/><path class="cls-3" d="M346.9,113l0,0C347,113,346.9,113,346.9,113Z"/><path class="cls-3" d="M211.06,117.49a10.93,10.93,0,0,1-5.44-3.28,14.66,14.66,0,0,0-3.18-3,13.67,13.67,0,0,1-2.78-2.12c-.9-.91-2.42-.91-2.52-.35s-1.41,1.91-2.77,3.88a53.22,53.22,0,0,1-4.69,5.25c-1.57,1.16-1.27,0-.66-1.57s3.18-9.58,4.59-13.82,5.95-16.5,8.12-22.9,10.9-25.63,10.9-25.63c3-7.56.2-8.07.2-8.07-2-2-4.09.4-4.69,1.72a50.17,50.17,0,0,1-2.93,6.15c-1.31,2.07-3.78,8.78-4.79,11.55s-5,14.73-6.41,19-7.26,16-7.26,16-.4-.6-1,.15-2.17,3.38-2.17,3.38a57.76,57.76,0,0,1-11.9,14.73c-3.38,3.43-6.06,1.57-6.06,1.57-1.91-1.21-3.68-10.19-3.68-10.19-.65-3.89,1-8.48,1-8.48.55-3,3.53-9.68,3.53-9.68,2.62-8.18,9.13-31.83,9.13-31.83,1.46-7.27.66-16.75.66-16.95s-.51-.31-1-.36-1.72-1.71-1.72-1.71c-1.81-1-3,1.26-3,1.26-1.92,4.44-8.16,20.61-8.16,20.61-4.3,10.45-5.29,28.32-5.29,28.32.07,4.1.07,11.51.07,13s-1.63,3.18-1.84,3.47-.85-.85-2-1.84-1.63-2-2.76-2.4-2.05.07-3.18,1.55a7.15,7.15,0,0,1-3,2.12c-7.07,5.86-10.95,18.79-10.95,18.79-.71,5.86,2,6.92,2,6.92,1.27.42,4.73,1.76,4.73,1.76l1,.07a7.67,7.67,0,0,0,3.46-2.12c.86-.8,7.11-7.41,7.11-7.41a35.8,35.8,0,0,0,6.36-11.7,17.63,17.63,0,0,1,2.42,4.84c.55,1.71,3,4.24,3,4.24,7.17,5.29,13.37-2.32,13.37-2.32,3.68-4,9.39-14.33,9.39-14.33s-1.32,4-1.32,4.24a13.14,13.14,0,0,1-1.26,3.83c-1,2-1,2.72-1.36,5.4s.86,4.18,1.56,4.24a17.78,17.78,0,0,1,3.18,1.26c3.13,1.41,4.49-.31,4.79-.61s1.67-1.61,3.23-3.18,5.9-5.5,5.9-5.5c7.22,6.06,19,5.91,19,5.91C217.07,120.07,213.28,118,211.06,117.49ZM173.14,51s-4.73,25.35-10.91,38.91C162.23,89.87,164.56,63.4,173.14,51ZM151.7,115.28a38.24,38.24,0,0,1-5.18,7.85,62,62,0,0,1-5.85,5.48c-.88.71-2.13,2.29-1.3-.92,0-.13.07-.26.11-.39a58,58,0,0,1,3.19-7.76,28.21,28.21,0,0,1,7.57-9.65,6.81,6.81,0,0,1,2.92-.42C153.58,111.35,152.53,113.4,151.7,115.28Z"/><path class="cls-2" d="M146.94,168.34c-3.42,0-5.46-1.84-5.46-6.25,0-3.39,2.57-6.6,5.66-6.6,3.69,0,5.55,2.07,5.55,6.46C152.69,165.3,150.17,168.34,146.94,168.34ZM146.89,157c-2.77,0-3.23,2.73-3.23,5.09,0,2.6.68,4.55,3.64,4.55,2.75,0,3.16-2.39,3.16-4.84C150.46,159.52,150,157,146.89,157Z"/><path class="cls-2" d="M154.46,167.16l1.3-.54a1.57,1.57,0,0,0,.75-1.37l.07-3.3v-4.7h-1.82v-1.14l1.82-.32V155c0-2.55,2.86-4.44,5.3-4.44,2.66,0,3.84.69,4.61,1.32a4.6,4.6,0,0,1,3.1-1.27c.88,0,3.43.11,3.43,1.36a1.71,1.71,0,0,1-.77,1.48,4.79,4.79,0,0,0-2.43-1.29c-2.69,0-2.82,1.34-2.82,3.11v.53h2.7v1.41H167V162l.15,4.05c0,.25,0,.34.25.39l2.78.59a4.29,4.29,0,0,1-.11,1.18H163a4.83,4.83,0,0,1-.09-1c.34-.13,1-.41,1-.41a1.48,1.48,0,0,0,1.07-1.5L165,162v-4.7h-6.41V162l.11,3.78c0,.54.05.64.48.73l2.12.47a6,6,0,0,1-.12,1.23h-6.62A4.42,4.42,0,0,1,154.46,167.16ZM165,155.84v-.62a4.11,4.11,0,0,1,.34-1.64,4.14,4.14,0,0,0-2.72-1.5c-3,0-4,.8-4,2.64v1.12Z"/><path class="cls-2" d="M173.5,162.09c.16,4,2,4.53,4.32,4.53a13.57,13.57,0,0,0,3.27-.39l.37,1.23a8.65,8.65,0,0,1-4.26.91c-3.25,0-5.75-1.07-5.75-5.78,0-4.44,2.23-7.1,5.69-7.1,3.23,0,4.59,2.28,4.59,6v.64Zm3.43-5.25c-1.8,0-3.23,1.36-3.41,3.95h5.89C179.41,158.25,178.73,156.84,176.93,156.84Z"/><path class="cls-2" d="M192.35,157.79a3.91,3.91,0,0,0-1.46-.25,4.36,4.36,0,0,0-3.23,1v3.41l.1,4.12c0,.36,0,.54.34.59l2.36.36a5.22,5.22,0,0,1-.09,1.16h-6.5a3.51,3.51,0,0,1-.09-1l1.06-.54a2,2,0,0,0,.8-1.71l.05-3v-4.71h-2.3v-1.16a19.22,19.22,0,0,1,3.39-.48c.63,0,.86.21.86.82v1a4.29,4.29,0,0,1,3.57-1.88,5.38,5.38,0,0,1,1.5.18Z"/><path class="cls-2" d="M197.83,168.39a9.3,9.3,0,0,1-4-.82L194,164l1.07,0a2.89,2.89,0,0,0,2.91,3c1.41,0,2.64-.43,2.64-1.75,0-1-.86-1.52-2.89-2.34-1.7-.69-3.52-1.66-3.52-4s1.95-3.48,4.36-3.48a8.39,8.39,0,0,1,3.64.8l-.38,3-.85-.09a2.8,2.8,0,0,0-2.84-2.34c-1.36,0-2.21.71-2.21,1.57,0,1.39,1.39,1.8,2.87,2.43,1.77.75,3.71,1.66,3.71,3.87C202.54,167.59,200.13,168.39,197.83,168.39Z"/></g></g></svg>